<svg width="394" height="120" viewBox="0 0 394 120" xmlns="http://www.w3.org/2000/svg" class="void-v92o7v" style="width: 100%; height: 100%;"><path fill-rule="evenodd" clip-rule="evenodd" d="M176.385 64.6457L223.103 28.2488L181.197 51.7932L176.385 64.6457Z"></path><path fill-rule="evenodd" clip-rule="evenodd" d="M92.9787 1.67386L59.0804 91.9876L25.2337 1.67386H0L43.6774 118.614H74.4833L118.168 1.67386H92.9787Z"></path><path fill-rule="evenodd" clip-rule="evenodd" d="M389.303 37.6651C386.295 30.6259 381.863 24.2843 376.284 19.039C370.708 13.6483 364.179 9.33791 357.028 6.32669C349.669 3.22856 341.759 1.64603 333.773 1.67386H293.793V118.769H333.773C342.127 118.769 349.832 117.501 357.028 114.411C364.203 111.449 370.74 107.136 376.284 101.706C381.907 96.3755 386.379 89.9519 389.426 82.8303C392.472 75.7087 394.027 68.0398 393.997 60.2952C394.079 52.5024 392.478 44.7834 389.303 37.6651ZM367.317 74.1136C365.477 78.3499 362.804 82.1738 359.457 85.3586C352.532 91.9484 343.336 95.6259 333.773 95.6302H317.536V24.9602H333.898C338.694 24.9498 343.446 25.8792 347.884 27.6958C352.154 29.5658 356.063 32.1687 359.434 35.3866C362.793 38.5589 365.467 42.3829 367.295 46.6243C369.255 50.9126 370.24 55.5813 370.18 60.2952C370.226 65.0529 369.249 69.7651 367.317 74.1136Z"></path><path fill-rule="evenodd" clip-rule="evenodd" d="M252.042 118.769H275.799V0L252.042 17.2104V118.769Z"></path><path fill-rule="evenodd" clip-rule="evenodd" d="M210.49 47.3321C212.041 51.4241 212.831 55.7647 212.822 60.1403C212.824 68.4754 209.963 76.5587 204.717 83.0396C199.471 89.5206 192.157 94.0067 183.999 95.7484C175.84 97.4901 167.331 96.3819 159.892 92.6091C152.453 88.8362 146.535 82.6271 143.127 75.0192C139.719 67.4113 139.027 58.8654 141.167 50.8092C143.307 42.753 148.15 35.6745 154.885 30.7563C161.621 25.8382 169.841 23.3783 178.174 23.7875C186.507 24.1968 194.446 27.4504 200.667 33.0049L251.843 0L212.771 12.2699C201.235 3.55681 186.936 -0.698918 172.508 0.286417C158.081 1.27175 144.495 7.43179 134.253 17.6322C124.011 27.8327 117.803 41.3866 116.771 55.7982C115.739 70.2097 119.954 84.5085 128.638 96.0614C137.323 107.614 149.893 115.643 164.034 118.67C178.174 121.697 192.933 119.518 205.593 112.533C218.253 105.549 227.96 94.2306 232.929 80.6617C237.897 67.0928 237.792 52.1874 232.631 38.6901L246.47 21.2733L210.49 47.3321Z"></path></svg>